<svg width="1394" height="6512" viewBox="0 0 1394 6512" fill="none" xmlns="http://www.w3.org/2000/svg">
<path d="M1295.5 6.5C1367 868 355.5 984.5 190.5 1729C25.5001 2473.5 1285.5 2930.5 1315.5 3482C1345.5 4033.5 609 4262.5 261 4716.5C-87 5170.5 729.5 6506 729.5 6506" stroke="#D52A2A" stroke-width="12" stroke-linecap="round"/>
<path d="M1359.5 130H1350.53V94.1562H1346.06V85.1875H1359.5V130Z" fill="black"/>
<path d="M238.844 1438.19L223.531 1483H213.938L226.531 1447.16H207.469V1438.19H238.844Z" fill="black"/>
<path d="M1330.56 381.625C1330.56 383.479 1330.21 385.229 1329.5 386.875C1328.79 388.5 1327.82 389.927 1326.59 391.156C1325.39 392.365 1323.97 393.323 1322.34 394.031C1320.72 394.74 1318.98 395.094 1317.12 395.094H1312.62C1312 395.094 1311.42 395.208 1310.88 395.438C1310.33 395.667 1309.85 395.99 1309.44 396.406C1309.04 396.802 1308.73 397.271 1308.5 397.812C1308.27 398.354 1308.16 398.938 1308.16 399.562V404.031H1329.34V413H1299.19V399.562C1299.19 397.708 1299.54 395.969 1300.25 394.344C1300.96 392.698 1301.92 391.271 1303.12 390.062C1304.35 388.833 1305.78 387.875 1307.41 387.188C1309.03 386.479 1310.77 386.125 1312.62 386.125H1317.12C1317.75 386.125 1318.33 386.01 1318.88 385.781C1319.42 385.552 1319.89 385.24 1320.28 384.844C1320.7 384.427 1321.02 383.948 1321.25 383.406C1321.48 382.844 1321.59 382.25 1321.59 381.625C1321.59 381 1321.48 380.417 1321.25 379.875C1321.02 379.333 1320.7 378.865 1320.28 378.469C1319.89 378.052 1319.42 377.729 1318.88 377.5C1318.33 377.271 1317.75 377.156 1317.12 377.156H1301.12V368.188H1317.12C1318.98 368.188 1320.72 368.542 1322.34 369.25C1323.97 369.958 1325.39 370.927 1326.59 372.156C1327.82 373.365 1328.79 374.781 1329.5 376.406C1330.21 378.031 1330.56 379.771 1330.56 381.625Z" fill="black"/>
<path d="M501.812 1332.56C501.812 1334.98 501.375 1337.26 500.5 1339.41C499.646 1341.55 498.458 1343.44 496.938 1345.06C495.417 1346.67 493.604 1347.94 491.5 1348.88C489.417 1349.81 487.156 1350.28 484.719 1350.28C482.281 1350.28 479.979 1349.81 477.812 1348.88C475.667 1347.94 473.792 1346.67 472.188 1345.06C470.583 1343.44 469.312 1341.55 468.375 1339.41C467.458 1337.26 467 1334.98 467 1332.56C467 1329.69 467.281 1326.89 467.844 1324.16C468.406 1321.41 469.229 1318.81 470.312 1316.38C471.396 1313.92 472.719 1311.66 474.281 1309.59C475.844 1307.53 477.615 1305.73 479.594 1304.19H491.688C490.438 1305 489.219 1305.91 488.031 1306.91C486.844 1307.91 485.708 1308.98 484.625 1310.12C483.562 1311.27 482.573 1312.48 481.656 1313.75C480.74 1315.02 479.927 1316.34 479.219 1317.72C480.115 1317.11 481.083 1316.6 482.125 1316.19C483.188 1315.75 484.271 1315.53 485.375 1315.53C487.896 1315.53 490.167 1315.96 492.188 1316.81C494.229 1317.65 495.958 1318.82 497.375 1320.34C498.792 1321.84 499.885 1323.64 500.656 1325.72C501.427 1327.8 501.812 1330.08 501.812 1332.56ZM492.844 1332.56C492.844 1331.38 492.646 1330.26 492.25 1329.22C491.875 1328.16 491.333 1327.23 490.625 1326.44C489.917 1325.62 489.062 1324.99 488.062 1324.53C487.062 1324.07 485.948 1323.84 484.719 1323.84C483.49 1323.84 482.375 1324.07 481.375 1324.53C480.375 1324.99 479.521 1325.62 478.812 1326.44C478.125 1327.23 477.594 1328.16 477.219 1329.22C476.844 1330.26 476.656 1331.38 476.656 1332.56C476.656 1333.71 476.844 1334.81 477.219 1335.88C477.615 1336.92 478.167 1337.84 478.875 1338.66C479.583 1339.47 480.427 1340.11 481.406 1340.59C482.406 1341.07 483.51 1341.31 484.719 1341.31C485.948 1341.31 487.062 1341.08 488.062 1340.62C489.062 1340.17 489.917 1339.54 490.625 1338.75C491.333 1337.94 491.875 1337 492.25 1335.94C492.646 1334.88 492.844 1333.75 492.844 1332.56Z" fill="black"/>
<path d="M1212.94 691.562C1212.94 693.417 1212.58 695.156 1211.88 696.781C1211.17 698.406 1210.2 699.833 1208.97 701.062C1207.76 702.271 1206.34 703.229 1204.72 703.938C1203.09 704.646 1201.35 705 1199.5 705H1181.56V696.031H1199.5C1200.12 696.031 1200.71 695.917 1201.25 695.688C1201.79 695.458 1202.26 695.146 1202.66 694.75C1203.07 694.333 1203.4 693.854 1203.62 693.312C1203.85 692.771 1203.97 692.188 1203.97 691.562C1203.97 690.938 1203.85 690.354 1203.62 689.812C1203.4 689.271 1203.07 688.802 1202.66 688.406C1202.26 687.99 1201.79 687.667 1201.25 687.438C1200.71 687.208 1200.12 687.094 1199.5 687.094H1187.28V678.125H1199.5C1200.12 678.125 1200.71 678.01 1201.25 677.781C1201.79 677.552 1202.26 677.24 1202.66 676.844C1203.07 676.427 1203.4 675.948 1203.62 675.406C1203.85 674.844 1203.97 674.25 1203.97 673.625C1203.97 673 1203.85 672.417 1203.62 671.875C1203.4 671.333 1203.07 670.865 1202.66 670.469C1202.26 670.052 1201.79 669.729 1201.25 669.5C1200.71 669.271 1200.12 669.156 1199.5 669.156H1181.56V660.188H1199.5C1201.35 660.188 1203.09 660.542 1204.72 661.25C1206.34 661.958 1207.76 662.927 1208.97 664.156C1210.2 665.365 1211.17 666.781 1211.88 668.406C1212.58 670.031 1212.94 671.771 1212.94 673.625C1212.94 675.271 1212.64 676.875 1212.03 678.438C1211.43 679.979 1210.57 681.365 1209.47 682.594C1210.57 683.823 1211.43 685.219 1212.03 686.781C1212.64 688.323 1212.94 689.917 1212.94 691.562Z" fill="black"/>
<path d="M729.75 1137.91C729.75 1140.09 729.365 1142.06 728.594 1143.81C727.823 1145.56 726.792 1147.04 725.5 1148.25C724.208 1149.46 722.708 1150.39 721 1151.03C719.312 1151.68 717.542 1152 715.688 1152H697.625V1143.03H715.688C716.292 1143.03 716.896 1142.94 717.5 1142.75C718.125 1142.56 718.677 1142.26 719.156 1141.84C719.656 1141.43 720.052 1140.9 720.344 1140.25C720.656 1139.6 720.812 1138.82 720.812 1137.91C720.812 1137.07 720.656 1136.34 720.344 1135.72C720.052 1135.07 719.656 1134.54 719.156 1134.12C718.677 1133.69 718.125 1133.36 717.5 1133.16C716.896 1132.93 716.292 1132.81 715.688 1132.81H697.625L700.25 1107.19H727.906V1116.16H708.312L707.5 1123.84H715.688C717.542 1123.84 719.312 1124.17 721 1124.81C722.708 1125.46 724.208 1126.4 725.5 1127.62C726.792 1128.83 727.823 1130.31 728.594 1132.06C729.365 1133.79 729.75 1135.74 729.75 1137.91Z" fill="black"/>
<path d="M974.312 947.031H969.844V956H960.875V947.031H938.469L943.469 911.188H952.438L948.531 938.094H960.875V915.688H969.844V938.094H974.312V947.031Z" fill="black"/>
<path d="M139.75 1757.19C139.75 1759.21 139.292 1761.07 138.375 1762.78C137.458 1764.49 136.198 1765.97 134.594 1767.22C133.01 1768.45 131.156 1769.41 129.031 1770.09C126.906 1770.8 124.635 1771.16 122.219 1771.16C119.802 1771.16 117.531 1770.8 115.406 1770.09C113.281 1769.41 111.417 1768.45 109.812 1767.22C108.229 1765.97 106.979 1764.49 106.062 1762.78C105.146 1761.07 104.688 1759.21 104.688 1757.19C104.688 1756.02 104.844 1754.89 105.156 1753.78C105.469 1752.66 105.917 1751.6 106.5 1750.62C107.104 1749.65 107.823 1748.75 108.656 1747.94C109.49 1747.1 110.427 1746.4 111.469 1745.81C110.823 1745.25 110.24 1744.6 109.719 1743.88C109.219 1743.15 108.781 1742.38 108.406 1741.56C108.052 1740.75 107.781 1739.92 107.594 1739.06C107.406 1738.19 107.312 1737.32 107.312 1736.47C107.312 1734.72 107.698 1733.08 108.469 1731.56C109.26 1730.02 110.333 1728.68 111.688 1727.53C113.042 1726.36 114.625 1725.45 116.438 1724.78C118.25 1724.11 120.177 1723.78 122.219 1723.78C124.281 1723.78 126.219 1724.11 128.031 1724.78C129.844 1725.45 131.427 1726.36 132.781 1727.53C134.156 1728.68 135.229 1730.02 136 1731.56C136.792 1733.08 137.188 1734.72 137.188 1736.47C137.188 1737.32 137.083 1738.19 136.875 1739.06C136.688 1739.92 136.417 1740.76 136.062 1741.59C135.708 1742.41 135.271 1743.18 134.75 1743.91C134.25 1744.64 133.677 1745.29 133.031 1745.88C134.052 1746.46 134.979 1747.16 135.812 1747.97C136.646 1748.78 137.354 1749.68 137.938 1750.66C138.521 1751.64 138.969 1752.68 139.281 1753.78C139.594 1754.89 139.75 1756.02 139.75 1757.19ZM128.406 1737.44C128.406 1736.71 128.24 1736.03 127.906 1735.41C127.594 1734.76 127.156 1734.2 126.594 1733.72C126.052 1733.24 125.406 1732.86 124.656 1732.59C123.906 1732.32 123.115 1732.19 122.281 1732.19C121.427 1732.19 120.625 1732.32 119.875 1732.59C119.125 1732.86 118.469 1733.24 117.906 1733.72C117.365 1734.2 116.927 1734.76 116.594 1735.41C116.281 1736.03 116.125 1736.71 116.125 1737.44C116.125 1738.17 116.281 1738.84 116.594 1739.47C116.927 1740.09 117.365 1740.64 117.906 1741.09C118.469 1741.55 119.125 1741.92 119.875 1742.19C120.625 1742.46 121.427 1742.59 122.281 1742.59C123.115 1742.59 123.906 1742.46 124.656 1742.19C125.406 1741.92 126.052 1741.55 126.594 1741.09C127.156 1740.64 127.594 1740.09 127.906 1739.47C128.24 1738.84 128.406 1738.17 128.406 1737.44ZM130.844 1756.94C130.844 1755.94 130.615 1755.01 130.156 1754.16C129.719 1753.28 129.104 1752.52 128.312 1751.88C127.542 1751.23 126.625 1750.72 125.562 1750.34C124.521 1749.97 123.406 1749.78 122.219 1749.78C121.031 1749.78 119.917 1749.97 118.875 1750.34C117.833 1750.72 116.917 1751.23 116.125 1751.88C115.354 1752.52 114.74 1753.28 114.281 1754.16C113.844 1755.01 113.625 1755.94 113.625 1756.94C113.625 1757.94 113.844 1758.85 114.281 1759.69C114.74 1760.52 115.354 1761.24 116.125 1761.84C116.917 1762.45 117.833 1762.93 118.875 1763.28C119.917 1763.61 121.031 1763.78 122.219 1763.78C123.406 1763.78 124.521 1763.61 125.562 1763.28C126.625 1762.93 127.542 1762.45 128.312 1761.84C129.104 1761.24 129.719 1760.52 130.156 1759.69C130.615 1758.85 130.844 1757.94 130.844 1756.94Z" fill="black"/>
<path d="M1087.72 3014H1078.76V2978.16H1074.29V2969.19H1087.72V3014ZM1136.31 3005.03H1131.84V3014H1122.87V3005.03H1100.47L1105.47 2969.19H1114.44L1110.53 2996.09H1122.87V2973.69H1131.84V2996.09H1136.31V3005.03Z" fill="black"/>
<path d="M1262.6 3205H1253.63V3169.16H1249.16V3160.19H1262.6V3205ZM1308.75 3190.91C1308.75 3193.09 1308.36 3195.06 1307.59 3196.81C1306.82 3198.56 1305.79 3200.04 1304.5 3201.25C1303.21 3202.46 1301.71 3203.39 1300 3204.03C1298.31 3204.68 1296.54 3205 1294.69 3205H1276.62V3196.03H1294.69C1295.29 3196.03 1295.9 3195.94 1296.5 3195.75C1297.12 3195.56 1297.68 3195.26 1298.16 3194.84C1298.66 3194.43 1299.05 3193.9 1299.34 3193.25C1299.66 3192.6 1299.81 3191.82 1299.81 3190.91C1299.81 3190.07 1299.66 3189.34 1299.34 3188.72C1299.05 3188.07 1298.66 3187.54 1298.16 3187.12C1297.68 3186.69 1297.12 3186.36 1296.5 3186.16C1295.9 3185.93 1295.29 3185.81 1294.69 3185.81H1276.62L1279.25 3160.19H1306.91V3169.16H1287.31L1286.5 3176.84H1294.69C1296.54 3176.84 1298.31 3177.17 1300 3177.81C1301.71 3178.46 1303.21 3179.4 1304.5 3180.62C1305.79 3181.83 1306.82 3183.31 1307.59 3185.06C1308.36 3186.79 1308.75 3188.74 1308.75 3190.91Z" fill="black"/>
<path d="M1343.72 3413H1334.76V3377.16H1330.29V3368.19H1343.72V3413ZM1391.81 3396.56C1391.81 3398.98 1391.37 3401.26 1390.5 3403.41C1389.65 3405.55 1388.46 3407.44 1386.94 3409.06C1385.42 3410.67 1383.6 3411.94 1381.5 3412.88C1379.42 3413.81 1377.16 3414.28 1374.72 3414.28C1372.28 3414.28 1369.98 3413.81 1367.81 3412.88C1365.67 3411.94 1363.79 3410.67 1362.19 3409.06C1360.58 3407.44 1359.31 3405.55 1358.37 3403.41C1357.46 3401.26 1357 3398.98 1357 3396.56C1357 3393.69 1357.28 3390.89 1357.84 3388.16C1358.41 3385.41 1359.23 3382.81 1360.31 3380.38C1361.4 3377.92 1362.72 3375.66 1364.28 3373.59C1365.84 3371.53 1367.61 3369.73 1369.59 3368.19H1381.69C1380.44 3369 1379.22 3369.91 1378.03 3370.91C1376.84 3371.91 1375.71 3372.98 1374.62 3374.12C1373.56 3375.27 1372.57 3376.48 1371.66 3377.75C1370.74 3379.02 1369.93 3380.34 1369.22 3381.72C1370.11 3381.11 1371.08 3380.6 1372.12 3380.19C1373.19 3379.75 1374.27 3379.53 1375.37 3379.53C1377.9 3379.53 1380.17 3379.96 1382.19 3380.81C1384.23 3381.65 1385.96 3382.82 1387.37 3384.34C1388.79 3385.84 1389.89 3387.64 1390.66 3389.72C1391.43 3391.8 1391.81 3394.08 1391.81 3396.56ZM1382.84 3396.56C1382.84 3395.38 1382.65 3394.26 1382.25 3393.22C1381.87 3392.16 1381.33 3391.23 1380.62 3390.44C1379.92 3389.62 1379.06 3388.99 1378.06 3388.53C1377.06 3388.07 1375.95 3387.84 1374.72 3387.84C1373.49 3387.84 1372.37 3388.07 1371.37 3388.53C1370.37 3388.99 1369.52 3389.62 1368.81 3390.44C1368.12 3391.23 1367.59 3392.16 1367.22 3393.22C1366.84 3394.26 1366.66 3395.38 1366.66 3396.56C1366.66 3397.71 1366.84 3398.81 1367.22 3399.88C1367.61 3400.92 1368.17 3401.84 1368.87 3402.66C1369.58 3403.47 1370.43 3404.11 1371.41 3404.59C1372.41 3405.07 1373.51 3405.31 1374.72 3405.31C1375.95 3405.31 1377.06 3405.08 1378.06 3404.62C1379.06 3404.17 1379.92 3403.54 1380.62 3402.75C1381.33 3401.94 1381.87 3401 1382.25 3399.94C1382.65 3398.88 1382.84 3397.75 1382.84 3396.56Z" fill="black"/>
<path d="M788.537 2931H779.569V2895.16H775.1V2886.19H788.537V2931ZM833.937 2917.56C833.937 2919.42 833.583 2921.16 832.875 2922.78C832.167 2924.41 831.198 2925.83 829.969 2927.06C828.76 2928.27 827.344 2929.23 825.719 2929.94C824.094 2930.65 822.354 2931 820.5 2931H802.562V2922.03H820.5C821.125 2922.03 821.708 2921.92 822.25 2921.69C822.792 2921.46 823.26 2921.15 823.656 2920.75C824.073 2920.33 824.396 2919.85 824.625 2919.31C824.854 2918.77 824.969 2918.19 824.969 2917.56C824.969 2916.94 824.854 2916.35 824.625 2915.81C824.396 2915.27 824.073 2914.8 823.656 2914.41C823.26 2913.99 822.792 2913.67 822.25 2913.44C821.708 2913.21 821.125 2913.09 820.5 2913.09H808.281V2904.12H820.5C821.125 2904.12 821.708 2904.01 822.25 2903.78C822.792 2903.55 823.26 2903.24 823.656 2902.84C824.073 2902.43 824.396 2901.95 824.625 2901.41C824.854 2900.84 824.969 2900.25 824.969 2899.62C824.969 2899 824.854 2898.42 824.625 2897.88C824.396 2897.33 824.073 2896.86 823.656 2896.47C823.26 2896.05 822.792 2895.73 822.25 2895.5C821.708 2895.27 821.125 2895.16 820.5 2895.16H802.562V2886.19H820.5C822.354 2886.19 824.094 2886.54 825.719 2887.25C827.344 2887.96 828.76 2888.93 829.969 2890.16C831.198 2891.36 832.167 2892.78 832.875 2894.41C833.583 2896.03 833.937 2897.77 833.937 2899.62C833.937 2901.27 833.635 2902.88 833.031 2904.44C832.427 2905.98 831.573 2907.36 830.469 2908.59C831.573 2909.82 832.427 2911.22 833.031 2912.78C833.635 2914.32 833.937 2915.92 833.937 2917.56Z" fill="black"/>
<path d="M139.562 1978.66C139.562 1981.53 139.271 1984.34 138.688 1987.09C138.125 1989.82 137.302 1992.41 136.219 1994.84C135.135 1997.28 133.812 1999.53 132.25 2001.59C130.688 2003.66 128.917 2005.46 126.938 2007H114.844C116.115 2006.19 117.344 2005.28 118.531 2004.28C119.719 2003.28 120.844 2002.21 121.906 2001.06C122.99 1999.92 123.99 1998.71 124.906 1997.44C125.823 1996.17 126.635 1994.85 127.344 1993.5C126.427 1994.1 125.448 1994.62 124.406 1995.06C123.365 1995.48 122.292 1995.69 121.188 1995.69C118.646 1995.69 116.365 1995.27 114.344 1994.44C112.323 1993.58 110.594 1992.41 109.156 1990.91C107.74 1989.39 106.646 1987.58 105.875 1985.5C105.125 1983.42 104.75 1981.14 104.75 1978.66C104.75 1976.24 105.177 1973.96 106.031 1971.81C106.906 1969.65 108.104 1967.76 109.625 1966.16C111.146 1964.53 112.948 1963.25 115.031 1962.31C117.115 1961.38 119.375 1960.91 121.812 1960.91C124.271 1960.91 126.573 1961.38 128.719 1962.31C130.885 1963.25 132.771 1964.53 134.375 1966.16C135.979 1967.76 137.24 1969.65 138.156 1971.81C139.094 1973.96 139.562 1976.24 139.562 1978.66ZM129.969 1978.66C129.969 1977.51 129.771 1976.41 129.375 1975.34C128.979 1974.28 128.417 1973.34 127.688 1972.53C126.979 1971.72 126.125 1971.07 125.125 1970.59C124.125 1970.11 123.021 1969.88 121.812 1969.88C120.583 1969.88 119.469 1970.11 118.469 1970.59C117.49 1971.05 116.646 1971.68 115.938 1972.47C115.229 1973.26 114.688 1974.19 114.312 1975.25C113.938 1976.31 113.75 1977.45 113.75 1978.66C113.75 1979.84 113.938 1980.97 114.312 1982.03C114.688 1983.07 115.229 1983.99 115.938 1984.78C116.646 1985.57 117.49 1986.2 118.469 1986.66C119.469 1987.11 120.583 1987.34 121.812 1987.34C123.042 1987.34 124.156 1987.11 125.156 1986.66C126.177 1986.2 127.042 1985.57 127.75 1984.78C128.458 1983.99 129 1983.07 129.375 1982.03C129.771 1980.97 129.969 1979.84 129.969 1978.66Z" fill="black"/>
<path d="M178.975 2261H170.006V2225.16H165.537V2216.19H178.975V2261ZM219.812 2238.59C219.812 2233.61 218.979 2229.92 217.312 2227.5C215.667 2225.08 213.365 2223.88 210.406 2223.88C207.469 2223.88 205.187 2225.07 203.562 2227.47C201.937 2229.86 201.125 2233.57 201.125 2238.59C201.125 2243.57 201.937 2247.27 203.562 2249.69C205.187 2252.1 207.469 2253.31 210.406 2253.31C211.885 2253.31 213.208 2253.02 214.375 2252.44C215.542 2251.83 216.521 2250.93 217.312 2249.72C218.125 2248.51 218.74 2246.99 219.156 2245.16C219.594 2243.3 219.812 2241.11 219.812 2238.59ZM228.344 2238.59C228.344 2242.84 227.875 2246.44 226.937 2249.38C226 2252.31 224.719 2254.69 223.094 2256.5C221.469 2258.31 219.562 2259.62 217.375 2260.44C215.208 2261.23 212.885 2261.62 210.406 2261.62C207.927 2261.62 205.594 2261.22 203.406 2260.41C201.24 2259.57 199.344 2258.25 197.719 2256.44C196.115 2254.6 194.844 2252.23 193.906 2249.31C192.969 2246.38 192.5 2242.8 192.5 2238.59C192.5 2234.34 192.969 2230.76 193.906 2227.84C194.844 2224.91 196.115 2222.53 197.719 2220.72C199.344 2218.91 201.24 2217.59 203.406 2216.78C205.594 2215.97 207.927 2215.56 210.406 2215.56C212.885 2215.56 215.208 2215.98 217.375 2216.81C219.562 2217.62 221.469 2218.95 223.094 2220.78C224.719 2222.61 226 2224.99 226.937 2227.91C227.875 2230.82 228.344 2234.39 228.344 2238.59Z" fill="black"/>
<path d="M327.725 2499H318.756V2463.16H314.287V2454.19H327.725V2499ZM354.5 2499H345.531V2463.16H341.062V2454.19H354.5V2499Z" fill="black"/>
<path d="M529.537 2713H520.569V2677.16H516.1V2668.19H529.537V2713ZM574.562 2681.62C574.562 2683.48 574.208 2685.23 573.5 2686.88C572.792 2688.5 571.823 2689.93 570.594 2691.16C569.385 2692.36 567.969 2693.32 566.344 2694.03C564.719 2694.74 562.979 2695.09 561.125 2695.09H556.625C556 2695.09 555.417 2695.21 554.875 2695.44C554.333 2695.67 553.854 2695.99 553.437 2696.41C553.042 2696.8 552.729 2697.27 552.5 2697.81C552.271 2698.35 552.156 2698.94 552.156 2699.56V2704.03H573.344V2713H543.187V2699.56C543.187 2697.71 543.542 2695.97 544.25 2694.34C544.958 2692.7 545.917 2691.27 547.125 2690.06C548.354 2688.83 549.781 2687.88 551.406 2687.19C553.031 2686.48 554.771 2686.12 556.625 2686.12H561.125C561.75 2686.12 562.333 2686.01 562.875 2685.78C563.417 2685.55 563.885 2685.24 564.281 2684.84C564.698 2684.43 565.021 2683.95 565.25 2683.41C565.479 2682.84 565.594 2682.25 565.594 2681.62C565.594 2681 565.479 2680.42 565.25 2679.88C565.021 2679.33 564.698 2678.86 564.281 2678.47C563.885 2678.05 563.417 2677.73 562.875 2677.5C562.333 2677.27 561.75 2677.16 561.125 2677.16H545.125V2668.19H561.125C562.979 2668.19 564.719 2668.54 566.344 2669.25C567.969 2669.96 569.385 2670.93 570.594 2672.16C571.823 2673.36 572.792 2674.78 573.5 2676.41C574.208 2678.03 574.562 2679.77 574.562 2681.62Z" fill="black"/>
<path d="M1350.04 3619H1341.07V3583.16H1336.6V3574.19H1350.04V3619ZM1393.84 3574.19L1378.53 3619H1368.94L1381.53 3583.16H1362.47V3574.19H1393.84Z" fill="black"/>
<path d="M148.6 5367.62C148.6 5369.48 148.246 5371.23 147.537 5372.88C146.829 5374.5 145.86 5375.93 144.631 5377.16C143.423 5378.36 142.006 5379.32 140.381 5380.03C138.756 5380.74 137.017 5381.09 135.162 5381.09H130.662C130.037 5381.09 129.454 5381.21 128.912 5381.44C128.371 5381.67 127.892 5381.99 127.475 5382.41C127.079 5382.8 126.767 5383.27 126.537 5383.81C126.308 5384.35 126.194 5384.94 126.194 5385.56V5390.03H147.381V5399H117.225V5385.56C117.225 5383.71 117.579 5381.97 118.287 5380.34C118.996 5378.7 119.954 5377.27 121.162 5376.06C122.392 5374.83 123.819 5373.88 125.444 5373.19C127.069 5372.48 128.808 5372.12 130.662 5372.12H135.162C135.787 5372.12 136.371 5372.01 136.912 5371.78C137.454 5371.55 137.923 5371.24 138.319 5370.84C138.735 5370.43 139.058 5369.95 139.287 5369.41C139.517 5368.84 139.631 5368.25 139.631 5367.62C139.631 5367 139.517 5366.42 139.287 5365.88C139.058 5365.33 138.735 5364.86 138.319 5364.47C137.923 5364.05 137.454 5363.73 136.912 5363.5C136.371 5363.27 135.787 5363.16 135.162 5363.16H119.162V5354.19H135.162C137.017 5354.19 138.756 5354.54 140.381 5355.25C142.006 5355.96 143.423 5356.93 144.631 5358.16C145.86 5359.36 146.829 5360.78 147.537 5362.41C148.246 5364.03 148.6 5365.77 148.6 5367.62ZM194.75 5386.19C194.75 5388.21 194.292 5390.07 193.375 5391.78C192.458 5393.49 191.198 5394.97 189.594 5396.22C188.01 5397.45 186.156 5398.41 184.031 5399.09C181.906 5399.8 179.635 5400.16 177.219 5400.16C174.802 5400.16 172.531 5399.8 170.406 5399.09C168.281 5398.41 166.417 5397.45 164.812 5396.22C163.229 5394.97 161.979 5393.49 161.062 5391.78C160.146 5390.07 159.688 5388.21 159.688 5386.19C159.688 5385.02 159.844 5383.89 160.156 5382.78C160.469 5381.66 160.917 5380.6 161.5 5379.62C162.104 5378.65 162.823 5377.75 163.656 5376.94C164.49 5376.1 165.427 5375.4 166.469 5374.81C165.823 5374.25 165.24 5373.6 164.719 5372.88C164.219 5372.15 163.781 5371.38 163.406 5370.56C163.052 5369.75 162.781 5368.92 162.594 5368.06C162.406 5367.19 162.312 5366.32 162.312 5365.47C162.312 5363.72 162.698 5362.08 163.469 5360.56C164.26 5359.02 165.333 5357.68 166.688 5356.53C168.042 5355.36 169.625 5354.45 171.438 5353.78C173.25 5353.11 175.177 5352.78 177.219 5352.78C179.281 5352.78 181.219 5353.11 183.031 5353.78C184.844 5354.45 186.427 5355.36 187.781 5356.53C189.156 5357.68 190.229 5359.02 191 5360.56C191.792 5362.08 192.188 5363.72 192.188 5365.47C192.188 5366.32 192.083 5367.19 191.875 5368.06C191.688 5368.92 191.417 5369.76 191.062 5370.59C190.708 5371.41 190.271 5372.18 189.75 5372.91C189.25 5373.64 188.677 5374.29 188.031 5374.88C189.052 5375.46 189.979 5376.16 190.812 5376.97C191.646 5377.78 192.354 5378.68 192.938 5379.66C193.521 5380.64 193.969 5381.68 194.281 5382.78C194.594 5383.89 194.75 5385.02 194.75 5386.19ZM183.406 5366.44C183.406 5365.71 183.24 5365.03 182.906 5364.41C182.594 5363.76 182.156 5363.2 181.594 5362.72C181.052 5362.24 180.406 5361.86 179.656 5361.59C178.906 5361.32 178.115 5361.19 177.281 5361.19C176.427 5361.19 175.625 5361.32 174.875 5361.59C174.125 5361.86 173.469 5362.24 172.906 5362.72C172.365 5363.2 171.927 5363.76 171.594 5364.41C171.281 5365.03 171.125 5365.71 171.125 5366.44C171.125 5367.17 171.281 5367.84 171.594 5368.47C171.927 5369.09 172.365 5369.64 172.906 5370.09C173.469 5370.55 174.125 5370.92 174.875 5371.19C175.625 5371.46 176.427 5371.59 177.281 5371.59C178.115 5371.59 178.906 5371.46 179.656 5371.19C180.406 5370.92 181.052 5370.55 181.594 5370.09C182.156 5369.64 182.594 5369.09 182.906 5368.47C183.24 5367.84 183.406 5367.17 183.406 5366.44ZM185.844 5385.94C185.844 5384.94 185.615 5384.01 185.156 5383.16C184.719 5382.28 184.104 5381.52 183.312 5380.88C182.542 5380.23 181.625 5379.72 180.562 5379.34C179.521 5378.97 178.406 5378.78 177.219 5378.78C176.031 5378.78 174.917 5378.97 173.875 5379.34C172.833 5379.72 171.917 5380.23 171.125 5380.88C170.354 5381.52 169.74 5382.28 169.281 5383.16C168.844 5384.01 168.625 5384.94 168.625 5385.94C168.625 5386.94 168.844 5387.85 169.281 5388.69C169.74 5389.52 170.354 5390.24 171.125 5390.84C171.917 5391.45 172.833 5391.93 173.875 5392.28C174.917 5392.61 176.031 5392.78 177.219 5392.78C178.406 5392.78 179.521 5392.61 180.562 5392.28C181.625 5391.93 182.542 5391.45 183.312 5390.84C184.104 5390.24 184.719 5389.52 185.156 5388.69C185.615 5387.85 185.844 5386.94 185.844 5385.94Z" fill="black"/>
<path d="M100.1 5172.62C100.1 5174.48 99.7458 5176.23 99.0375 5177.88C98.3292 5179.5 97.3604 5180.93 96.1312 5182.16C94.9229 5183.36 93.5062 5184.32 91.8812 5185.03C90.2562 5185.74 88.5167 5186.09 86.6625 5186.09H82.1625C81.5375 5186.09 80.9542 5186.21 80.4125 5186.44C79.8708 5186.67 79.3917 5186.99 78.975 5187.41C78.5792 5187.8 78.2667 5188.27 78.0375 5188.81C77.8083 5189.35 77.6937 5189.94 77.6937 5190.56V5195.03H98.8812V5204H68.725V5190.56C68.725 5188.71 69.0792 5186.97 69.7875 5185.34C70.4958 5183.7 71.4542 5182.27 72.6625 5181.06C73.8917 5179.83 75.3187 5178.88 76.9437 5178.19C78.5687 5177.48 80.3083 5177.12 82.1625 5177.12H86.6625C87.2875 5177.12 87.8708 5177.01 88.4125 5176.78C88.9542 5176.55 89.4229 5176.24 89.8187 5175.84C90.2354 5175.43 90.5583 5174.95 90.7875 5174.41C91.0167 5173.84 91.1312 5173.25 91.1312 5172.62C91.1312 5172 91.0167 5171.42 90.7875 5170.88C90.5583 5170.33 90.2354 5169.86 89.8187 5169.47C89.4229 5169.05 88.9542 5168.73 88.4125 5168.5C87.8708 5168.27 87.2875 5168.16 86.6625 5168.16H70.6625V5159.19H86.6625C88.5167 5159.19 90.2562 5159.54 91.8812 5160.25C93.5062 5160.96 94.9229 5161.93 96.1312 5163.16C97.3604 5164.36 98.3292 5165.78 99.0375 5167.41C99.7458 5169.03 100.1 5170.77 100.1 5172.62ZM141.844 5159.19L126.531 5204H116.938L129.531 5168.16H110.469V5159.19H141.844Z" fill="black"/>
<path d="M1299.54 3825H1290.57V3789.16H1286.1V3780.19H1299.54V3825ZM1347.75 3812.19C1347.75 3814.21 1347.29 3816.07 1346.37 3817.78C1345.46 3819.49 1344.2 3820.97 1342.59 3822.22C1341.01 3823.45 1339.16 3824.41 1337.03 3825.09C1334.91 3825.8 1332.64 3826.16 1330.22 3826.16C1327.8 3826.16 1325.53 3825.8 1323.41 3825.09C1321.28 3824.41 1319.42 3823.45 1317.81 3822.22C1316.23 3820.97 1314.98 3819.49 1314.06 3817.78C1313.15 3816.07 1312.69 3814.21 1312.69 3812.19C1312.69 3811.02 1312.84 3809.89 1313.16 3808.78C1313.47 3807.66 1313.92 3806.6 1314.5 3805.62C1315.1 3804.65 1315.82 3803.75 1316.66 3802.94C1317.49 3802.1 1318.43 3801.4 1319.47 3800.81C1318.82 3800.25 1318.24 3799.6 1317.72 3798.88C1317.22 3798.15 1316.78 3797.38 1316.41 3796.56C1316.05 3795.75 1315.78 3794.92 1315.59 3794.06C1315.41 3793.19 1315.31 3792.32 1315.31 3791.47C1315.31 3789.72 1315.7 3788.08 1316.47 3786.56C1317.26 3785.02 1318.33 3783.68 1319.69 3782.53C1321.04 3781.36 1322.62 3780.45 1324.44 3779.78C1326.25 3779.11 1328.18 3778.78 1330.22 3778.78C1332.28 3778.78 1334.22 3779.11 1336.03 3779.78C1337.84 3780.45 1339.43 3781.36 1340.78 3782.53C1342.16 3783.68 1343.23 3785.02 1344 3786.56C1344.79 3788.08 1345.19 3789.72 1345.19 3791.47C1345.19 3792.32 1345.08 3793.19 1344.87 3794.06C1344.69 3794.92 1344.42 3795.76 1344.06 3796.59C1343.71 3797.41 1343.27 3798.18 1342.75 3798.91C1342.25 3799.64 1341.68 3800.29 1341.03 3800.88C1342.05 3801.46 1342.98 3802.16 1343.81 3802.97C1344.65 3803.78 1345.35 3804.68 1345.94 3805.66C1346.52 3806.64 1346.97 3807.68 1347.28 3808.78C1347.59 3809.89 1347.75 3811.02 1347.75 3812.19ZM1336.41 3792.44C1336.41 3791.71 1336.24 3791.03 1335.91 3790.41C1335.59 3789.76 1335.16 3789.2 1334.59 3788.72C1334.05 3788.24 1333.41 3787.86 1332.66 3787.59C1331.91 3787.32 1331.11 3787.19 1330.28 3787.19C1329.43 3787.19 1328.62 3787.32 1327.87 3787.59C1327.12 3787.86 1326.47 3788.24 1325.91 3788.72C1325.36 3789.2 1324.93 3789.76 1324.59 3790.41C1324.28 3791.03 1324.12 3791.71 1324.12 3792.44C1324.12 3793.17 1324.28 3793.84 1324.59 3794.47C1324.93 3795.09 1325.36 3795.64 1325.91 3796.09C1326.47 3796.55 1327.12 3796.92 1327.87 3797.19C1328.62 3797.46 1329.43 3797.59 1330.28 3797.59C1331.11 3797.59 1331.91 3797.46 1332.66 3797.19C1333.41 3796.92 1334.05 3796.55 1334.59 3796.09C1335.16 3795.64 1335.59 3795.09 1335.91 3794.47C1336.24 3793.84 1336.41 3793.17 1336.41 3792.44ZM1338.84 3811.94C1338.84 3810.94 1338.61 3810.01 1338.16 3809.16C1337.72 3808.28 1337.1 3807.52 1336.31 3806.88C1335.54 3806.23 1334.62 3805.72 1333.56 3805.34C1332.52 3804.97 1331.41 3804.78 1330.22 3804.78C1329.03 3804.78 1327.92 3804.97 1326.87 3805.34C1325.83 3805.72 1324.92 3806.23 1324.12 3806.88C1323.35 3807.52 1322.74 3808.28 1322.28 3809.16C1321.84 3810.01 1321.62 3810.94 1321.62 3811.94C1321.62 3812.94 1321.84 3813.85 1322.28 3814.69C1322.74 3815.52 1323.35 3816.24 1324.12 3816.84C1324.92 3817.45 1325.83 3817.93 1326.87 3818.28C1327.92 3818.61 1329.03 3818.78 1330.22 3818.78C1331.41 3818.78 1332.52 3818.61 1333.56 3818.28C1334.62 3817.93 1335.54 3817.45 1336.31 3816.84C1337.1 3816.24 1337.72 3815.52 1338.16 3814.69C1338.61 3813.85 1338.84 3812.94 1338.84 3811.94Z" fill="black"/>
<path d="M1182.66 4002H1173.69V3966.16H1169.22V3957.19H1182.66V4002ZM1230.56 3973.66C1230.56 3976.53 1230.27 3979.34 1229.69 3982.09C1229.12 3984.82 1228.3 3987.41 1227.22 3989.84C1226.14 3992.28 1224.81 3994.53 1223.25 3996.59C1221.69 3998.66 1219.92 4000.46 1217.94 4002H1205.84C1207.11 4001.19 1208.34 4000.28 1209.53 3999.28C1210.72 3998.28 1211.84 3997.21 1212.91 3996.06C1213.99 3994.92 1214.99 3993.71 1215.91 3992.44C1216.82 3991.17 1217.64 3989.85 1218.34 3988.5C1217.43 3989.1 1216.45 3989.62 1215.41 3990.06C1214.36 3990.48 1213.29 3990.69 1212.19 3990.69C1209.65 3990.69 1207.36 3990.27 1205.34 3989.44C1203.32 3988.58 1201.59 3987.41 1200.16 3985.91C1198.74 3984.39 1197.65 3982.58 1196.87 3980.5C1196.12 3978.42 1195.75 3976.14 1195.75 3973.66C1195.75 3971.24 1196.18 3968.96 1197.03 3966.81C1197.91 3964.65 1199.1 3962.76 1200.62 3961.16C1202.15 3959.53 1203.95 3958.25 1206.03 3957.31C1208.11 3956.38 1210.37 3955.91 1212.81 3955.91C1215.27 3955.91 1217.57 3956.38 1219.72 3957.31C1221.89 3958.25 1223.77 3959.53 1225.37 3961.16C1226.98 3962.76 1228.24 3964.65 1229.16 3966.81C1230.09 3968.96 1230.56 3971.24 1230.56 3973.66ZM1220.97 3973.66C1220.97 3972.51 1220.77 3971.41 1220.37 3970.34C1219.98 3969.28 1219.42 3968.34 1218.69 3967.53C1217.98 3966.72 1217.12 3966.07 1216.12 3965.59C1215.12 3965.11 1214.02 3964.88 1212.81 3964.88C1211.58 3964.88 1210.47 3965.11 1209.47 3965.59C1208.49 3966.05 1207.65 3966.68 1206.94 3967.47C1206.23 3968.26 1205.69 3969.19 1205.31 3970.25C1204.94 3971.31 1204.75 3972.45 1204.75 3973.66C1204.75 3974.84 1204.94 3975.97 1205.31 3977.03C1205.69 3978.07 1206.23 3978.99 1206.94 3979.78C1207.65 3980.57 1208.49 3981.2 1209.47 3981.66C1210.47 3982.11 1211.58 3982.34 1212.81 3982.34C1214.04 3982.34 1215.16 3982.11 1216.16 3981.66C1217.18 3981.2 1218.04 3980.57 1218.75 3979.78C1219.46 3978.99 1220 3978.07 1220.37 3977.03C1220.77 3975.97 1220.97 3974.84 1220.97 3973.66Z" fill="black"/>
<path d="M1055.04 4118.62C1055.04 4120.48 1054.68 4122.23 1053.97 4123.88C1053.27 4125.5 1052.3 4126.93 1051.07 4128.16C1049.86 4129.36 1048.44 4130.32 1046.82 4131.03C1045.19 4131.74 1043.45 4132.09 1041.6 4132.09H1037.1C1036.47 4132.09 1035.89 4132.21 1035.35 4132.44C1034.81 4132.67 1034.33 4132.99 1033.91 4133.41C1033.52 4133.8 1033.2 4134.27 1032.97 4134.81C1032.75 4135.35 1032.63 4135.94 1032.63 4136.56V4141.03H1053.82V4150H1023.66V4136.56C1023.66 4134.71 1024.02 4132.97 1024.72 4131.34C1025.43 4129.7 1026.39 4128.27 1027.6 4127.06C1028.83 4125.83 1030.26 4124.88 1031.88 4124.19C1033.51 4123.48 1035.25 4123.12 1037.1 4123.12H1041.6C1042.22 4123.12 1042.81 4123.01 1043.35 4122.78C1043.89 4122.55 1044.36 4122.24 1044.76 4121.84C1045.17 4121.43 1045.5 4120.95 1045.72 4120.41C1045.95 4119.84 1046.07 4119.25 1046.07 4118.62C1046.07 4118 1045.95 4117.42 1045.72 4116.88C1045.5 4116.33 1045.17 4115.86 1044.76 4115.47C1044.36 4115.05 1043.89 4114.73 1043.35 4114.5C1042.81 4114.27 1042.22 4114.16 1041.6 4114.16H1025.6V4105.19H1041.6C1043.45 4105.19 1045.19 4105.54 1046.82 4106.25C1048.44 4106.96 1049.86 4107.93 1051.07 4109.16C1052.3 4110.36 1053.27 4111.78 1053.97 4113.41C1054.68 4115.03 1055.04 4116.77 1055.04 4118.62ZM1093.81 4127.59C1093.81 4122.61 1092.98 4118.92 1091.31 4116.5C1089.67 4114.08 1087.36 4112.88 1084.41 4112.88C1081.47 4112.88 1079.19 4114.07 1077.56 4116.47C1075.94 4118.86 1075.12 4122.57 1075.12 4127.59C1075.12 4132.57 1075.94 4136.27 1077.56 4138.69C1079.19 4141.1 1081.47 4142.31 1084.41 4142.31C1085.89 4142.31 1087.21 4142.02 1088.38 4141.44C1089.54 4140.83 1090.52 4139.93 1091.31 4138.72C1092.12 4137.51 1092.74 4135.99 1093.16 4134.16C1093.59 4132.3 1093.81 4130.11 1093.81 4127.59ZM1102.34 4127.59C1102.34 4131.84 1101.88 4135.44 1100.94 4138.38C1100 4141.31 1098.72 4143.69 1097.09 4145.5C1095.47 4147.31 1093.56 4148.62 1091.38 4149.44C1089.21 4150.23 1086.89 4150.62 1084.41 4150.62C1081.93 4150.62 1079.59 4150.22 1077.41 4149.41C1075.24 4148.57 1073.34 4147.25 1071.72 4145.44C1070.11 4143.6 1068.84 4141.23 1067.91 4138.31C1066.97 4135.38 1066.5 4131.8 1066.5 4127.59C1066.5 4123.34 1066.97 4119.76 1067.91 4116.84C1068.84 4113.91 1070.11 4111.53 1071.72 4109.72C1073.34 4107.91 1075.24 4106.59 1077.41 4105.78C1079.59 4104.97 1081.93 4104.56 1084.41 4104.56C1086.89 4104.56 1089.21 4104.98 1091.38 4105.81C1093.56 4106.62 1095.47 4107.95 1097.09 4109.78C1098.72 4111.61 1100 4113.99 1100.94 4116.91C1101.88 4119.82 1102.34 4123.39 1102.34 4127.59Z" fill="black"/>
<path d="M908.787 4241.62C908.787 4243.48 908.433 4245.23 907.725 4246.88C907.017 4248.5 906.048 4249.93 904.819 4251.16C903.61 4252.36 902.194 4253.32 900.569 4254.03C898.944 4254.74 897.204 4255.09 895.35 4255.09H890.85C890.225 4255.09 889.642 4255.21 889.1 4255.44C888.558 4255.67 888.079 4255.99 887.662 4256.41C887.267 4256.8 886.954 4257.27 886.725 4257.81C886.496 4258.35 886.381 4258.94 886.381 4259.56V4264.03H907.569V4273H877.412V4259.56C877.412 4257.71 877.767 4255.97 878.475 4254.34C879.183 4252.7 880.142 4251.27 881.35 4250.06C882.579 4248.83 884.006 4247.88 885.631 4247.19C887.256 4246.48 888.996 4246.12 890.85 4246.12H895.35C895.975 4246.12 896.558 4246.01 897.1 4245.78C897.642 4245.55 898.11 4245.24 898.506 4244.84C898.923 4244.43 899.246 4243.95 899.475 4243.41C899.704 4242.84 899.819 4242.25 899.819 4241.62C899.819 4241 899.704 4240.42 899.475 4239.88C899.246 4239.33 898.923 4238.86 898.506 4238.47C898.11 4238.05 897.642 4237.73 897.1 4237.5C896.558 4237.27 895.975 4237.16 895.35 4237.16H879.35V4228.19H895.35C897.204 4228.19 898.944 4228.54 900.569 4229.25C902.194 4229.96 903.61 4230.93 904.819 4232.16C906.048 4233.36 907.017 4234.78 907.725 4236.41C908.433 4238.03 908.787 4239.77 908.787 4241.62ZM933.5 4273H924.531V4237.16H920.062V4228.19H933.5V4273Z" fill="black"/>
<path d="M556.6 4304.62C556.6 4306.48 556.246 4308.23 555.537 4309.88C554.829 4311.5 553.86 4312.93 552.631 4314.16C551.423 4315.36 550.006 4316.32 548.381 4317.03C546.756 4317.74 545.017 4318.09 543.162 4318.09H538.662C538.037 4318.09 537.454 4318.21 536.912 4318.44C536.371 4318.67 535.892 4318.99 535.475 4319.41C535.079 4319.8 534.767 4320.27 534.537 4320.81C534.308 4321.35 534.194 4321.94 534.194 4322.56V4327.03H555.381V4336H525.225V4322.56C525.225 4320.71 525.579 4318.97 526.287 4317.34C526.996 4315.7 527.954 4314.27 529.162 4313.06C530.392 4311.83 531.819 4310.88 533.444 4310.19C535.069 4309.48 536.808 4309.12 538.662 4309.12H543.162C543.787 4309.12 544.371 4309.01 544.912 4308.78C545.454 4308.55 545.923 4308.24 546.319 4307.84C546.735 4307.43 547.058 4306.95 547.287 4306.41C547.517 4305.84 547.631 4305.25 547.631 4304.62C547.631 4304 547.517 4303.42 547.287 4302.88C547.058 4302.33 546.735 4301.86 546.319 4301.47C545.923 4301.05 545.454 4300.73 544.912 4300.5C544.371 4300.27 543.787 4300.16 543.162 4300.16H527.162V4291.19H543.162C545.017 4291.19 546.756 4291.54 548.381 4292.25C550.006 4292.96 551.423 4293.93 552.631 4295.16C553.86 4296.36 554.829 4297.78 555.537 4299.41C556.246 4301.03 556.6 4302.77 556.6 4304.62ZM599.562 4304.62C599.562 4306.48 599.208 4308.23 598.5 4309.88C597.792 4311.5 596.823 4312.93 595.594 4314.16C594.385 4315.36 592.969 4316.32 591.344 4317.03C589.719 4317.74 587.979 4318.09 586.125 4318.09H581.625C581 4318.09 580.417 4318.21 579.875 4318.44C579.333 4318.67 578.854 4318.99 578.438 4319.41C578.042 4319.8 577.729 4320.27 577.5 4320.81C577.271 4321.35 577.156 4321.94 577.156 4322.56V4327.03H598.344V4336H568.188V4322.56C568.188 4320.71 568.542 4318.97 569.25 4317.34C569.958 4315.7 570.917 4314.27 572.125 4313.06C573.354 4311.83 574.781 4310.88 576.406 4310.19C578.031 4309.48 579.771 4309.12 581.625 4309.12H586.125C586.75 4309.12 587.333 4309.01 587.875 4308.78C588.417 4308.55 588.885 4308.24 589.281 4307.84C589.698 4307.43 590.021 4306.95 590.25 4306.41C590.479 4305.84 590.594 4305.25 590.594 4304.62C590.594 4304 590.479 4303.42 590.25 4302.88C590.021 4302.33 589.698 4301.86 589.281 4301.47C588.885 4301.05 588.417 4300.73 587.875 4300.5C587.333 4300.27 586.75 4300.16 586.125 4300.16H570.125V4291.19H586.125C587.979 4291.19 589.719 4291.54 591.344 4292.25C592.969 4292.96 594.385 4293.93 595.594 4295.16C596.823 4296.36 597.792 4297.78 598.5 4299.41C599.208 4301.03 599.562 4302.77 599.562 4304.62Z" fill="black"/>
<path d="M408.6 4428.62C408.6 4430.48 408.246 4432.23 407.537 4433.88C406.829 4435.5 405.86 4436.93 404.631 4438.16C403.423 4439.36 402.006 4440.32 400.381 4441.03C398.756 4441.74 397.017 4442.09 395.162 4442.09H390.662C390.037 4442.09 389.454 4442.21 388.912 4442.44C388.371 4442.67 387.892 4442.99 387.475 4443.41C387.079 4443.8 386.767 4444.27 386.537 4444.81C386.308 4445.35 386.194 4445.94 386.194 4446.56V4451.03H407.381V4460H377.225V4446.56C377.225 4444.71 377.579 4442.97 378.287 4441.34C378.996 4439.7 379.954 4438.27 381.162 4437.06C382.392 4435.83 383.819 4434.88 385.444 4434.19C387.069 4433.48 388.808 4433.12 390.662 4433.12H395.162C395.787 4433.12 396.371 4433.01 396.912 4432.78C397.454 4432.55 397.923 4432.24 398.319 4431.84C398.735 4431.43 399.058 4430.95 399.287 4430.41C399.517 4429.84 399.631 4429.25 399.631 4428.62C399.631 4428 399.517 4427.42 399.287 4426.88C399.058 4426.33 398.735 4425.86 398.319 4425.47C397.923 4425.05 397.454 4424.73 396.912 4424.5C396.371 4424.27 395.787 4424.16 395.162 4424.16H379.162V4415.19H395.162C397.017 4415.19 398.756 4415.54 400.381 4416.25C402.006 4416.96 403.423 4417.93 404.631 4419.16C405.86 4420.36 406.829 4421.78 407.537 4423.41C408.246 4425.03 408.6 4426.77 408.6 4428.62ZM451.938 4446.56C451.938 4448.42 451.583 4450.16 450.875 4451.78C450.167 4453.41 449.198 4454.83 447.969 4456.06C446.76 4457.27 445.344 4458.23 443.719 4458.94C442.094 4459.65 440.354 4460 438.5 4460H420.562V4451.03H438.5C439.125 4451.03 439.708 4450.92 440.25 4450.69C440.792 4450.46 441.26 4450.15 441.656 4449.75C442.073 4449.33 442.396 4448.85 442.625 4448.31C442.854 4447.77 442.969 4447.19 442.969 4446.56C442.969 4445.94 442.854 4445.35 442.625 4444.81C442.396 4444.27 442.073 4443.8 441.656 4443.41C441.26 4442.99 440.792 4442.67 440.25 4442.44C439.708 4442.21 439.125 4442.09 438.5 4442.09H426.281V4433.12H438.5C439.125 4433.12 439.708 4433.01 440.25 4432.78C440.792 4432.55 441.26 4432.24 441.656 4431.84C442.073 4431.43 442.396 4430.95 442.625 4430.41C442.854 4429.84 442.969 4429.25 442.969 4428.62C442.969 4428 442.854 4427.42 442.625 4426.88C442.396 4426.33 442.073 4425.86 441.656 4425.47C441.26 4425.05 440.792 4424.73 440.25 4424.5C439.708 4424.27 439.125 4424.16 438.5 4424.16H420.562V4415.19H438.5C440.354 4415.19 442.094 4415.54 443.719 4416.25C445.344 4416.96 446.76 4417.93 447.969 4419.16C449.198 4420.36 450.167 4421.78 450.875 4423.41C451.583 4425.03 451.938 4426.77 451.938 4428.62C451.938 4430.27 451.635 4431.88 451.031 4433.44C450.427 4434.98 449.573 4436.36 448.469 4437.59C449.573 4438.82 450.427 4440.22 451.031 4441.78C451.635 4443.32 451.938 4444.92 451.938 4446.56Z" fill="black"/>
<path d="M267.787 4565.62C267.787 4567.48 267.433 4569.23 266.725 4570.88C266.017 4572.5 265.048 4573.93 263.819 4575.16C262.61 4576.36 261.194 4577.32 259.569 4578.03C257.944 4578.74 256.204 4579.09 254.35 4579.09H249.85C249.225 4579.09 248.642 4579.21 248.1 4579.44C247.558 4579.67 247.079 4579.99 246.662 4580.41C246.267 4580.8 245.954 4581.27 245.725 4581.81C245.496 4582.35 245.381 4582.94 245.381 4583.56V4588.03H266.569V4597H236.412V4583.56C236.412 4581.71 236.767 4579.97 237.475 4578.34C238.183 4576.7 239.142 4575.27 240.35 4574.06C241.579 4572.83 243.006 4571.88 244.631 4571.19C246.256 4570.48 247.996 4570.12 249.85 4570.12H254.35C254.975 4570.12 255.558 4570.01 256.1 4569.78C256.642 4569.55 257.11 4569.24 257.506 4568.84C257.923 4568.43 258.246 4567.95 258.475 4567.41C258.704 4566.84 258.819 4566.25 258.819 4565.62C258.819 4565 258.704 4564.42 258.475 4563.88C258.246 4563.33 257.923 4562.86 257.506 4562.47C257.11 4562.05 256.642 4561.73 256.1 4561.5C255.558 4561.27 254.975 4561.16 254.35 4561.16H238.35V4552.19H254.35C256.204 4552.19 257.944 4552.54 259.569 4553.25C261.194 4553.96 262.61 4554.93 263.819 4556.16C265.048 4557.36 266.017 4558.78 266.725 4560.41C267.433 4562.03 267.787 4563.77 267.787 4565.62ZM314.312 4588.03H309.844V4597H300.875V4588.03H278.469L283.469 4552.19H292.438L288.531 4579.09H300.875V4556.69H309.844V4579.09H314.312V4588.03Z" fill="black"/>
<path d="M93.7875 4962.62C93.7875 4964.48 93.4333 4966.23 92.725 4967.88C92.0167 4969.5 91.0479 4970.93 89.8187 4972.16C88.6104 4973.36 87.1937 4974.32 85.5687 4975.03C83.9437 4975.74 82.2042 4976.09 80.35 4976.09H75.85C75.225 4976.09 74.6417 4976.21 74.1 4976.44C73.5583 4976.67 73.0792 4976.99 72.6625 4977.41C72.2667 4977.8 71.9542 4978.27 71.725 4978.81C71.4958 4979.35 71.3812 4979.94 71.3812 4980.56V4985.03H92.5687V4994H62.4125V4980.56C62.4125 4978.71 62.7667 4976.97 63.475 4975.34C64.1833 4973.7 65.1417 4972.27 66.35 4971.06C67.5792 4969.83 69.0062 4968.88 70.6312 4968.19C72.2562 4967.48 73.9958 4967.12 75.85 4967.12H80.35C80.975 4967.12 81.5583 4967.01 82.1 4966.78C82.6417 4966.55 83.1104 4966.24 83.5062 4965.84C83.9229 4965.43 84.2458 4964.95 84.475 4964.41C84.7042 4963.84 84.8187 4963.25 84.8187 4962.62C84.8187 4962 84.7042 4961.42 84.475 4960.88C84.2458 4960.33 83.9229 4959.86 83.5062 4959.47C83.1104 4959.05 82.6417 4958.73 82.1 4958.5C81.5583 4958.27 80.975 4958.16 80.35 4958.16H64.35V4949.19H80.35C82.2042 4949.19 83.9437 4949.54 85.5687 4950.25C87.1937 4950.96 88.6104 4951.93 89.8187 4953.16C91.0479 4954.36 92.0167 4955.78 92.725 4957.41C93.4333 4959.03 93.7875 4960.77 93.7875 4962.62ZM139.812 4977.56C139.812 4979.98 139.375 4982.26 138.5 4984.41C137.646 4986.55 136.458 4988.44 134.938 4990.06C133.417 4991.67 131.604 4992.94 129.5 4993.88C127.417 4994.81 125.156 4995.28 122.719 4995.28C120.281 4995.28 117.979 4994.81 115.812 4993.88C113.667 4992.94 111.792 4991.67 110.188 4990.06C108.583 4988.44 107.312 4986.55 106.375 4984.41C105.458 4982.26 105 4979.98 105 4977.56C105 4974.69 105.281 4971.89 105.844 4969.16C106.406 4966.41 107.229 4963.81 108.312 4961.38C109.396 4958.92 110.719 4956.66 112.281 4954.59C113.844 4952.53 115.615 4950.73 117.594 4949.19H129.688C128.438 4950 127.219 4950.91 126.031 4951.91C124.844 4952.91 123.708 4953.98 122.625 4955.12C121.562 4956.27 120.573 4957.48 119.656 4958.75C118.74 4960.02 117.927 4961.34 117.219 4962.72C118.115 4962.11 119.083 4961.6 120.125 4961.19C121.188 4960.75 122.271 4960.53 123.375 4960.53C125.896 4960.53 128.167 4960.96 130.188 4961.81C132.229 4962.65 133.958 4963.82 135.375 4965.34C136.792 4966.84 137.885 4968.64 138.656 4970.72C139.427 4972.8 139.812 4975.08 139.812 4977.56ZM130.844 4977.56C130.844 4976.38 130.646 4975.26 130.25 4974.22C129.875 4973.16 129.333 4972.23 128.625 4971.44C127.917 4970.62 127.062 4969.99 126.062 4969.53C125.062 4969.07 123.948 4968.84 122.719 4968.84C121.49 4968.84 120.375 4969.07 119.375 4969.53C118.375 4969.99 117.521 4970.62 116.812 4971.44C116.125 4972.23 115.594 4973.16 115.219 4974.22C114.844 4975.26 114.656 4976.38 114.656 4977.56C114.656 4978.71 114.844 4979.81 115.219 4980.88C115.615 4981.92 116.167 4982.84 116.875 4983.66C117.583 4984.47 118.427 4985.11 119.406 4985.59C120.406 4986.07 121.51 4986.31 122.719 4986.31C123.948 4986.31 125.062 4986.08 126.062 4985.62C127.062 4985.17 127.917 4984.54 128.625 4983.75C129.333 4982.94 129.875 4982 130.25 4980.94C130.646 4979.88 130.844 4978.75 130.844 4977.56Z" fill="black"/>
<path d="M150.662 4731.62C150.662 4733.48 150.308 4735.23 149.6 4736.88C148.892 4738.5 147.923 4739.93 146.694 4741.16C145.485 4742.36 144.069 4743.32 142.444 4744.03C140.819 4744.74 139.079 4745.09 137.225 4745.09H132.725C132.1 4745.09 131.517 4745.21 130.975 4745.44C130.433 4745.67 129.954 4745.99 129.537 4746.41C129.142 4746.8 128.829 4747.27 128.6 4747.81C128.371 4748.35 128.256 4748.94 128.256 4749.56V4754.03H149.444V4763H119.287V4749.56C119.287 4747.71 119.642 4745.97 120.35 4744.34C121.058 4742.7 122.017 4741.27 123.225 4740.06C124.454 4738.83 125.881 4737.88 127.506 4737.19C129.131 4736.48 130.871 4736.12 132.725 4736.12H137.225C137.85 4736.12 138.433 4736.01 138.975 4735.78C139.517 4735.55 139.985 4735.24 140.381 4734.84C140.798 4734.43 141.121 4733.95 141.35 4733.41C141.579 4732.84 141.694 4732.25 141.694 4731.62C141.694 4731 141.579 4730.42 141.35 4729.88C141.121 4729.33 140.798 4728.86 140.381 4728.47C139.985 4728.05 139.517 4727.73 138.975 4727.5C138.433 4727.27 137.85 4727.16 137.225 4727.16H121.225V4718.19H137.225C139.079 4718.19 140.819 4718.54 142.444 4719.25C144.069 4719.96 145.485 4720.93 146.694 4722.16C147.923 4723.36 148.892 4724.78 149.6 4726.41C150.308 4728.03 150.662 4729.77 150.662 4731.62ZM194.75 4748.91C194.75 4751.09 194.365 4753.06 193.594 4754.81C192.823 4756.56 191.792 4758.04 190.5 4759.25C189.208 4760.46 187.708 4761.39 186 4762.03C184.312 4762.68 182.542 4763 180.688 4763H162.625V4754.03H180.688C181.292 4754.03 181.896 4753.94 182.5 4753.75C183.125 4753.56 183.677 4753.26 184.156 4752.84C184.656 4752.43 185.052 4751.9 185.344 4751.25C185.656 4750.6 185.812 4749.82 185.812 4748.91C185.812 4748.07 185.656 4747.34 185.344 4746.72C185.052 4746.07 184.656 4745.54 184.156 4745.12C183.677 4744.69 183.125 4744.36 182.5 4744.16C181.896 4743.93 181.292 4743.81 180.688 4743.81H162.625L165.25 4718.19H192.906V4727.16H173.312L172.5 4734.84H180.688C182.542 4734.84 184.312 4735.17 186 4735.81C187.708 4736.46 189.208 4737.4 190.5 4738.62C191.792 4739.83 192.823 4741.31 193.594 4743.06C194.365 4744.79 194.75 4746.74 194.75 4748.91Z" fill="black"/>
</svg>
